<svg xmlns="http://www.w3.org/2000/svg" xmlns:xlink="http://www.w3.org/1999/xlink" width="433" zoomAndPan="magnify" viewBox="0 0 324.75 80.999996" height="108" preserveAspectRatio="xMidYMid meet" version="1.0"><defs><g/><clipPath id="fa3eb906bc"><path d="M 0 0.03125 L 71.242188 0.03125 L 71.242188 80.386719 L 0 80.386719 Z M 0 0.03125 " clip-rule="nonzero"/></clipPath></defs><g clip-path="url(#fa3eb906bc)"><path fill="#3a78a7" d="M 29.035156 0.03125 L 5.777344 0.03125 C 2.59375 0.03125 0.015625 2.570312 0.015625 5.703125 L 0.015625 36.929688 L 17.726562 36.929688 C 17.378906 35.714844 16.804688 34.339844 15.960938 32.480469 C 14.355469 28.941406 13.308594 26.230469 14.480469 23.371094 C 15.65625 20.507812 18.203125 19.480469 20.851562 19.429688 C 23.503906 19.378906 27.144531 19.984375 28.140625 20.285156 C 29.132812 20.585938 29.667969 20.785156 28.957031 21.164062 C 28.242188 21.539062 24.851562 23.09375 24.851562 23.09375 C 30.128906 21.964844 39.707031 19.523438 42.6875 19.425781 C 45.671875 19.328125 48.066406 19.65625 49.898438 21.941406 C 51.734375 24.222656 51.671875 28.441406 49.898438 31.414062 C 48.128906 34.386719 47.210938 36.386719 47.289062 39.226562 C 47.363281 42.066406 47.277344 50.347656 45.746094 54.863281 C 44.21875 59.378906 43.171875 61.5625 41.925781 62.917969 C 40.675781 64.273438 39.9375 62.066406 39.835938 59.582031 C 39.734375 57.097656 40.027344 53.46875 39.796875 51.777344 C 39.566406 50.082031 37.503906 47.148438 35.363281 46.054688 C 33.222656 44.964844 29.554688 44.625 28.0625 49.253906 C 26.574219 53.886719 25.886719 62.128906 25.347656 63.105469 C 24.816406 64.085938 22.484375 66.117188 20.839844 63.332031 C 19.195312 60.546875 19.121094 59.042969 19.121094 59.042969 C 18.125 54.789062 17.550781 48.953125 17.550781 46.808594 C 17.550781 45.804688 17.664062 44.753906 17.785156 43.691406 L 0.015625 43.691406 L 0.015625 74.917969 C 0.015625 78.054688 2.59375 80.59375 5.777344 80.59375 L 28.605469 80.59375 C 55.691406 80.59375 71.492188 63.328125 71.492188 40.082031 L 71.492188 39.851562 C 71.492188 16.601562 55.90625 0.03125 29.035156 0.03125 " fill-opacity="1" fill-rule="nonzero"/></g><g fill="#3a78a7" fill-opacity="1"><g transform="translate(86.185204, 50.257584)"><g><path d="M 1.953125 0 L 1.953125 -21.640625 L 10.265625 -21.640625 C 11.867188 -21.640625 13.375 -21.359375 14.78125 -20.796875 C 16.1875 -20.242188 17.394531 -19.484375 18.40625 -18.515625 C 19.425781 -17.546875 20.226562 -16.390625 20.8125 -15.046875 C 21.40625 -13.710938 21.703125 -12.285156 21.703125 -10.765625 C 21.703125 -9.253906 21.40625 -7.835938 20.8125 -6.515625 C 20.226562 -5.203125 19.425781 -4.066406 18.40625 -3.109375 C 17.394531 -2.148438 16.1875 -1.390625 14.78125 -0.828125 C 13.375 -0.273438 11.867188 0 10.265625 0 Z M 10.234375 -17.65625 L 6.4375 -17.65625 L 6.4375 -3.984375 L 10.234375 -3.984375 C 11.179688 -3.984375 12.070312 -4.160156 12.90625 -4.515625 C 13.738281 -4.867188 14.460938 -5.347656 15.078125 -5.953125 C 15.703125 -6.554688 16.1875 -7.269531 16.53125 -8.09375 C 16.882812 -8.925781 17.0625 -9.816406 17.0625 -10.765625 C 17.0625 -11.734375 16.882812 -12.640625 16.53125 -13.484375 C 16.1875 -14.328125 15.703125 -15.054688 15.078125 -15.671875 C 14.460938 -16.296875 13.738281 -16.78125 12.90625 -17.125 C 12.070312 -17.476562 11.179688 -17.65625 10.234375 -17.65625 Z M 10.234375 -17.65625 "/></g></g></g><g fill="#3a78a7" fill-opacity="1"><g transform="translate(109.005964, 50.257584)"><g><path d="M 1.953125 0 L 1.953125 -21.640625 L 18.578125 -21.640625 L 18.578125 -17.75 L 6.4375 -17.75 L 6.4375 -12.796875 L 14.4375 -12.796875 L 14.4375 -9.03125 L 6.4375 -9.03125 L 6.4375 -3.890625 L 18.703125 -3.890625 L 18.703125 0 Z M 1.953125 0 "/></g></g></g><g fill="#3a78a7" fill-opacity="1"><g transform="translate(128.950937, 50.257584)"><g><path d="M 1.953125 -21.640625 L 6.21875 -21.640625 L 16.96875 -7.640625 L 16.96875 -21.640625 L 21.1875 -21.640625 L 21.1875 0 L 17.21875 0 L 6.1875 -14.46875 L 6.1875 0 L 1.953125 0 Z M 1.953125 -21.640625 "/></g></g></g><g fill="#3a78a7" fill-opacity="1"><g transform="translate(152.111833, 50.257584)"><g><path d="M 0.5625 -17.6875 L 0.5625 -21.640625 L 19.609375 -21.640625 L 19.609375 -17.6875 L 12.34375 -17.6875 L 12.34375 0 L 7.859375 0 L 7.859375 -17.6875 Z M 0.5625 -17.6875 "/></g></g></g><g fill="#3a78a7" fill-opacity="1"><g transform="translate(172.273258, 50.257584)"><g><path d="M -0.125 0 L 8.78125 -21.640625 L 13.984375 -21.640625 L 22.765625 0 L 17.90625 0 L 15.703125 -5.6875 L 6.765625 -5.6875 L 4.546875 0 Z M 8.15625 -9.28125 L 14.34375 -9.28125 L 11.28125 -17.25 Z M 8.15625 -9.28125 "/></g></g></g><g fill="#3a78a7" fill-opacity="1"><g transform="translate(194.908484, 50.257584)"><g><path d="M 1.953125 0 L 1.953125 -21.640625 L 6.4375 -21.640625 L 6.4375 -3.953125 L 18.28125 -3.953125 L 18.28125 0 Z M 1.953125 0 "/></g></g></g><g fill="#3a78a7" fill-opacity="1"><g transform="translate(214.327774, 50.257584)"><g/></g></g><g fill="#3a78a7" fill-opacity="1"><g transform="translate(220.543182, 50.257584)"><g><path d="M 12.765625 -3.828125 C 13.898438 -3.828125 14.960938 -4.0625 15.953125 -4.53125 C 16.941406 -5.007812 17.816406 -5.695312 18.578125 -6.59375 L 21.515625 -3.6875 C 20.484375 -2.46875 19.171875 -1.492188 17.578125 -0.765625 C 15.984375 -0.046875 14.335938 0.3125 12.640625 0.3125 C 11.015625 0.3125 9.492188 0.0234375 8.078125 -0.546875 C 6.671875 -1.128906 5.453125 -1.914062 4.421875 -2.90625 C 3.390625 -3.894531 2.578125 -5.066406 1.984375 -6.421875 C 1.398438 -7.785156 1.109375 -9.253906 1.109375 -10.828125 C 1.109375 -12.390625 1.40625 -13.851562 2 -15.21875 C 2.601562 -16.59375 3.421875 -17.773438 4.453125 -18.765625 C 5.484375 -19.753906 6.703125 -20.535156 8.109375 -21.109375 C 9.523438 -21.691406 11.035156 -21.984375 12.640625 -21.984375 C 14.378906 -21.984375 16.0625 -21.617188 17.6875 -20.890625 C 19.3125 -20.160156 20.628906 -19.175781 21.640625 -17.9375 L 18.609375 -14.9375 C 17.847656 -15.882812 16.953125 -16.609375 15.921875 -17.109375 C 14.890625 -17.617188 13.796875 -17.875 12.640625 -17.875 C 11.671875 -17.875 10.757812 -17.691406 9.90625 -17.328125 C 9.050781 -16.972656 8.3125 -16.476562 7.6875 -15.84375 C 7.070312 -15.21875 6.585938 -14.476562 6.234375 -13.625 C 5.890625 -12.769531 5.71875 -11.835938 5.71875 -10.828125 C 5.71875 -9.835938 5.894531 -8.910156 6.25 -8.046875 C 6.613281 -7.191406 7.109375 -6.457031 7.734375 -5.84375 C 8.367188 -5.226562 9.113281 -4.738281 9.96875 -4.375 C 10.820312 -4.007812 11.753906 -3.828125 12.765625 -3.828125 Z M 12.765625 -3.828125 "/></g></g></g><g fill="#3a78a7" fill-opacity="1"><g transform="translate(242.745491, 50.257584)"><g><path d="M -0.125 0 L 8.78125 -21.640625 L 13.984375 -21.640625 L 22.765625 0 L 17.90625 0 L 15.703125 -5.6875 L 6.765625 -5.6875 L 4.546875 0 Z M 8.15625 -9.28125 L 14.34375 -9.28125 L 11.28125 -17.25 Z M 8.15625 -9.28125 "/></g></g></g><g fill="#3a78a7" fill-opacity="1"><g transform="translate(265.380717, 50.257584)"><g><path d="M 1.953125 0 L 1.953125 -21.640625 L 12.515625 -21.640625 C 13.609375 -21.640625 14.613281 -21.472656 15.53125 -21.140625 C 16.457031 -20.816406 17.25 -20.359375 17.90625 -19.765625 C 18.5625 -19.179688 19.070312 -18.476562 19.4375 -17.65625 C 19.8125 -16.832031 20 -15.925781 20 -14.9375 C 20 -13.570312 19.613281 -12.351562 18.84375 -11.28125 C 18.070312 -10.207031 17.046875 -9.414062 15.765625 -8.90625 L 20.5625 0 L 15.546875 0 L 11.3125 -8.28125 L 6.4375 -8.28125 L 6.4375 0 Z M 12.125 -17.78125 L 6.4375 -17.78125 L 6.4375 -11.96875 L 12.125 -11.96875 C 13.132812 -11.96875 13.941406 -12.234375 14.546875 -12.765625 C 15.160156 -13.304688 15.46875 -14.007812 15.46875 -14.875 C 15.46875 -15.738281 15.160156 -16.4375 14.546875 -16.96875 C 13.941406 -17.507812 13.132812 -17.78125 12.125 -17.78125 Z M 12.125 -17.78125 "/></g></g></g><g fill="#3a78a7" fill-opacity="1"><g transform="translate(286.377044, 50.257584)"><g><path d="M 1.953125 0 L 1.953125 -21.640625 L 18.578125 -21.640625 L 18.578125 -17.75 L 6.4375 -17.75 L 6.4375 -12.796875 L 14.4375 -12.796875 L 14.4375 -9.03125 L 6.4375 -9.03125 L 6.4375 -3.890625 L 18.703125 -3.890625 L 18.703125 0 Z M 1.953125 0 "/></g></g></g></svg>